<svg width="345" height="345" viewBox="0 0 345 345" fill="none" xmlns="http://www.w3.org/2000/svg">
    <rect width="345" height="345" rx="100" fill="#151A1E"/>
    <path d="M180.756 173.496C180.756 173.138 180.948 172.807 181.258 172.629L272.95 119.863C273.617 119.479 274.449 119.96 274.449 120.729L274.449 233.408C274.449 233.773 274.25 234.109 273.93 234.285L182.237 284.591C181.571 284.957 180.756 284.475 180.756 283.715L180.756 173.496Z" fill="#E3E3E3"/>
    <path d="M88.2565 123.858L169.256 172.261C169.408 172.352 169.5 172.515 169.5 172.691V281.303C169.5 281.706 169.049 281.943 168.717 281.716L87.7171 226.142C87.5812 226.049 87.5 225.894 87.5 225.73V124.288C87.5 123.899 87.9232 123.659 88.2565 123.858Z" stroke="#697078" stroke-width="5" stroke-linejoin="round"/>
    <path d="M176.021 59.2645C176.319 59.0997 176.681 59.0985 176.981 59.2612L267.95 108.658C268.633 109.029 268.65 110.002 267.982 110.398L177.013 164.196C176.697 164.383 176.304 164.382 175.989 164.193L86.4874 110.394C85.8269 109.997 85.8447 109.034 86.5193 108.661L176.021 59.2645Z" fill="#ADB1BA"/>
</svg>
